<mxfile host="app.diagrams.net" modified="2021-03-25T01:25:15.183Z" agent="5.0 (Windows NT 10.0; WOW64) AppleWebKit/537.36 (KHTML, like Gecko) Chrome/89.0.4389.90 Safari/537.36" etag="ZLX4CsJV6vbr0yBv3Hl1" version="14.5.0" type="github">
  <diagram id="2ZMkYgRO9kCbuM6umPEP" name="Page-1">
    <mxGraphModel dx="1038" dy="548" grid="0" gridSize="10" guides="1" tooltips="1" connect="1" arrows="1" fold="1" page="1" pageScale="1" pageWidth="827" pageHeight="1169" math="0" shadow="0">
      <root>
        <mxCell id="0" />
        <mxCell id="1" parent="0" />
        <mxCell id="tZOg5kYcPO-3j_NHQJEs-3" value="业务部门" style="rounded=1;whiteSpace=wrap;html=1;fontSize=21;fillColor=#fad7ac;strokeColor=none;fontStyle=1" parent="1" vertex="1">
          <mxGeometry x="150" y="100" width="120" height="60" as="geometry" />
        </mxCell>
        <mxCell id="tZOg5kYcPO-3j_NHQJEs-4" value="数据部门" style="rounded=1;whiteSpace=wrap;html=1;fontSize=21;fillColor=#fad7ac;strokeColor=none;fontStyle=1" parent="1" vertex="1">
          <mxGeometry x="380" y="100" width="120" height="60" as="geometry" />
        </mxCell>
        <mxCell id="tZOg5kYcPO-3j_NHQJEs-5" value="IT部门" style="rounded=1;whiteSpace=wrap;html=1;fontSize=21;fillColor=#fad7ac;strokeColor=none;fontStyle=1" parent="1" vertex="1">
          <mxGeometry x="610" y="100" width="120" height="60" as="geometry" />
        </mxCell>
        <mxCell id="tZOg5kYcPO-3j_NHQJEs-6" value="业务指标需求提出&lt;br style=&quot;font-size: 16px;&quot;&gt;" style="rounded=0;whiteSpace=wrap;html=1;fontSize=16;" parent="1" vertex="1">
          <mxGeometry x="150" y="200" width="120" height="60" as="geometry" />
        </mxCell>
        <mxCell id="tZOg5kYcPO-3j_NHQJEs-7" value="" style="endArrow=classic;html=1;exitX=1;exitY=0.5;exitDx=0;exitDy=0;entryX=0;entryY=0.5;entryDx=0;entryDy=0;rounded=1;fontSize=16;" parent="1" source="tZOg5kYcPO-3j_NHQJEs-6" target="tZOg5kYcPO-3j_NHQJEs-8" edge="1">
          <mxGeometry width="50" height="50" relative="1" as="geometry">
            <mxPoint x="390" y="300" as="sourcePoint" />
            <mxPoint x="320" y="110" as="targetPoint" />
          </mxGeometry>
        </mxCell>
        <mxCell id="tZOg5kYcPO-3j_NHQJEs-8" value="需求初审和指标口径明确" style="rounded=0;whiteSpace=wrap;html=1;fontSize=16;" parent="1" vertex="1">
          <mxGeometry x="380" y="200" width="120" height="60" as="geometry" />
        </mxCell>
        <mxCell id="tZOg5kYcPO-3j_NHQJEs-20" value="" style="edgeStyle=orthogonalEdgeStyle;rounded=1;orthogonalLoop=1;jettySize=auto;html=1;fontSize=16;" parent="1" source="tZOg5kYcPO-3j_NHQJEs-9" target="tZOg5kYcPO-3j_NHQJEs-19" edge="1">
          <mxGeometry relative="1" as="geometry">
            <Array as="points">
              <mxPoint x="670" y="320" />
            </Array>
          </mxGeometry>
        </mxCell>
        <mxCell id="tZOg5kYcPO-3j_NHQJEs-9" value="技术可行性评估" style="rounded=0;whiteSpace=wrap;html=1;fontSize=16;" parent="1" vertex="1">
          <mxGeometry x="610" y="200" width="120" height="60" as="geometry" />
        </mxCell>
        <mxCell id="tZOg5kYcPO-3j_NHQJEs-10" value="" style="endArrow=classic;html=1;entryX=0;entryY=0.5;entryDx=0;entryDy=0;exitX=1;exitY=0.5;exitDx=0;exitDy=0;fontSize=16;" parent="1" source="tZOg5kYcPO-3j_NHQJEs-8" target="tZOg5kYcPO-3j_NHQJEs-9" edge="1">
          <mxGeometry width="50" height="50" relative="1" as="geometry">
            <mxPoint x="390" y="300" as="sourcePoint" />
            <mxPoint x="440" y="250" as="targetPoint" />
          </mxGeometry>
        </mxCell>
        <mxCell id="tZOg5kYcPO-3j_NHQJEs-22" value="" style="edgeStyle=orthogonalEdgeStyle;rounded=1;orthogonalLoop=1;jettySize=auto;html=1;fontSize=16;" parent="1" source="tZOg5kYcPO-3j_NHQJEs-19" target="tZOg5kYcPO-3j_NHQJEs-21" edge="1">
          <mxGeometry relative="1" as="geometry" />
        </mxCell>
        <mxCell id="tZOg5kYcPO-3j_NHQJEs-19" value="数据部门核实" style="rounded=0;whiteSpace=wrap;html=1;fontSize=16;" parent="1" vertex="1">
          <mxGeometry x="380" y="290" width="120" height="60" as="geometry" />
        </mxCell>
        <mxCell id="GLGulFIJSa8iGkK1QRbc-5" value="" style="edgeStyle=orthogonalEdgeStyle;rounded=0;orthogonalLoop=1;jettySize=auto;html=1;entryX=0.5;entryY=0;entryDx=0;entryDy=0;exitX=0.5;exitY=1;exitDx=0;exitDy=0;" edge="1" parent="1" source="tZOg5kYcPO-3j_NHQJEs-21" target="GLGulFIJSa8iGkK1QRbc-1">
          <mxGeometry relative="1" as="geometry">
            <Array as="points">
              <mxPoint x="210" y="364" />
              <mxPoint x="440" y="364" />
            </Array>
          </mxGeometry>
        </mxCell>
        <mxCell id="tZOg5kYcPO-3j_NHQJEs-21" value="指标确认" style="rounded=0;whiteSpace=wrap;html=1;fontSize=16;" parent="1" vertex="1">
          <mxGeometry x="150" y="290" width="120" height="60" as="geometry" />
        </mxCell>
        <mxCell id="tZOg5kYcPO-3j_NHQJEs-27" value="" style="edgeStyle=orthogonalEdgeStyle;rounded=1;orthogonalLoop=1;jettySize=auto;html=1;fontSize=16;" parent="1" source="tZOg5kYcPO-3j_NHQJEs-24" target="tZOg5kYcPO-3j_NHQJEs-25" edge="1">
          <mxGeometry relative="1" as="geometry" />
        </mxCell>
        <mxCell id="GLGulFIJSa8iGkK1QRbc-22" value="" style="edgeStyle=orthogonalEdgeStyle;rounded=0;orthogonalLoop=1;jettySize=auto;html=1;" edge="1" parent="1" source="tZOg5kYcPO-3j_NHQJEs-24" target="GLGulFIJSa8iGkK1QRbc-21">
          <mxGeometry relative="1" as="geometry" />
        </mxCell>
        <mxCell id="tZOg5kYcPO-3j_NHQJEs-24" value="指标生产，一致性检验" style="rounded=0;whiteSpace=wrap;html=1;fontSize=16;" parent="1" vertex="1">
          <mxGeometry x="380" y="495" width="120" height="60" as="geometry" />
        </mxCell>
        <mxCell id="tZOg5kYcPO-3j_NHQJEs-25" value="指标发布" style="rounded=0;whiteSpace=wrap;html=1;fontSize=16;" parent="1" vertex="1">
          <mxGeometry x="380" y="585" width="120" height="60" as="geometry" />
        </mxCell>
        <mxCell id="tZOg5kYcPO-3j_NHQJEs-28" value="" style="endArrow=none;dashed=1;html=1;dashPattern=1 3;strokeWidth=2;fontSize=16;" parent="1" edge="1">
          <mxGeometry width="50" height="50" relative="1" as="geometry">
            <mxPoint x="320" y="650" as="sourcePoint" />
            <mxPoint x="320" y="100" as="targetPoint" />
          </mxGeometry>
        </mxCell>
        <mxCell id="tZOg5kYcPO-3j_NHQJEs-29" value="" style="endArrow=none;dashed=1;html=1;dashPattern=1 3;strokeWidth=2;fontSize=16;" parent="1" edge="1">
          <mxGeometry width="50" height="50" relative="1" as="geometry">
            <mxPoint x="559" y="630" as="sourcePoint" />
            <mxPoint x="559" y="100" as="targetPoint" />
          </mxGeometry>
        </mxCell>
        <mxCell id="tZOg5kYcPO-3j_NHQJEs-30" value="" style="endArrow=none;dashed=1;html=1;dashPattern=1 3;strokeWidth=2;fontSize=16;" parent="1" edge="1">
          <mxGeometry width="50" height="50" relative="1" as="geometry">
            <mxPoint x="130" y="177" as="sourcePoint" />
            <mxPoint x="750" y="177" as="targetPoint" />
          </mxGeometry>
        </mxCell>
        <mxCell id="GLGulFIJSa8iGkK1QRbc-8" value="" style="edgeStyle=orthogonalEdgeStyle;rounded=0;orthogonalLoop=1;jettySize=auto;html=1;" edge="1" parent="1" source="GLGulFIJSa8iGkK1QRbc-1" target="tZOg5kYcPO-3j_NHQJEs-24">
          <mxGeometry relative="1" as="geometry">
            <Array as="points">
              <mxPoint x="440" y="470" />
              <mxPoint x="440" y="470" />
            </Array>
          </mxGeometry>
        </mxCell>
        <mxCell id="GLGulFIJSa8iGkK1QRbc-13" value="通过" style="edgeLabel;html=1;align=center;verticalAlign=middle;resizable=0;points=[];" vertex="1" connectable="0" parent="GLGulFIJSa8iGkK1QRbc-8">
          <mxGeometry x="-0.3101" y="3" relative="1" as="geometry">
            <mxPoint x="-3" as="offset" />
          </mxGeometry>
        </mxCell>
        <mxCell id="GLGulFIJSa8iGkK1QRbc-18" value="" style="edgeStyle=orthogonalEdgeStyle;rounded=0;orthogonalLoop=1;jettySize=auto;html=1;entryX=1;entryY=0.5;entryDx=0;entryDy=0;" edge="1" parent="1" source="GLGulFIJSa8iGkK1QRbc-1" target="GLGulFIJSa8iGkK1QRbc-14">
          <mxGeometry relative="1" as="geometry">
            <mxPoint x="305.5" y="415" as="targetPoint" />
          </mxGeometry>
        </mxCell>
        <mxCell id="GLGulFIJSa8iGkK1QRbc-19" value="&amp;nbsp;不通过" style="edgeLabel;html=1;align=center;verticalAlign=middle;resizable=0;points=[];" vertex="1" connectable="0" parent="GLGulFIJSa8iGkK1QRbc-18">
          <mxGeometry x="-0.1775" y="2" relative="1" as="geometry">
            <mxPoint x="15" y="-2" as="offset" />
          </mxGeometry>
        </mxCell>
        <mxCell id="GLGulFIJSa8iGkK1QRbc-1" value="&lt;span style=&quot;font-size: 16px&quot;&gt;数据部门&lt;br&gt;领导审批&lt;/span&gt;" style="rhombus;whiteSpace=wrap;html=1;" vertex="1" parent="1">
          <mxGeometry x="385.5" y="378" width="109" height="74" as="geometry" />
        </mxCell>
        <mxCell id="GLGulFIJSa8iGkK1QRbc-14" value="重新评估" style="rounded=0;whiteSpace=wrap;html=1;fontSize=16;" vertex="1" parent="1">
          <mxGeometry x="150" y="385" width="120" height="60" as="geometry" />
        </mxCell>
        <mxCell id="GLGulFIJSa8iGkK1QRbc-20" value="" style="endArrow=none;dashed=1;html=1;dashPattern=1 3;strokeWidth=2;fontSize=16;" edge="1" parent="1">
          <mxGeometry width="50" height="50" relative="1" as="geometry">
            <mxPoint x="559" y="648" as="sourcePoint" />
            <mxPoint x="559" y="100" as="targetPoint" />
          </mxGeometry>
        </mxCell>
        <mxCell id="GLGulFIJSa8iGkK1QRbc-23" value="" style="edgeStyle=orthogonalEdgeStyle;rounded=0;orthogonalLoop=1;jettySize=auto;html=1;entryX=1;entryY=0.75;entryDx=0;entryDy=0;exitX=0;exitY=0.75;exitDx=0;exitDy=0;" edge="1" parent="1" source="GLGulFIJSa8iGkK1QRbc-21" target="tZOg5kYcPO-3j_NHQJEs-24">
          <mxGeometry relative="1" as="geometry">
            <mxPoint x="670" y="635" as="targetPoint" />
          </mxGeometry>
        </mxCell>
        <mxCell id="GLGulFIJSa8iGkK1QRbc-21" value="技术信息补充" style="rounded=0;whiteSpace=wrap;html=1;fontSize=16;" vertex="1" parent="1">
          <mxGeometry x="610" y="495" width="120" height="60" as="geometry" />
        </mxCell>
      </root>
    </mxGraphModel>
  </diagram>
</mxfile>
